<svg xmlns="http://www.w3.org/2000/svg" width="512" height="512" viewBox="0 0 512 512"><defs><linearGradient id="a" x1="74" x2="440" y1="52" y2="466" gradientUnits="userSpaceOnUse"><stop stop-color="#e6f5c8"/><stop offset="1" stop-color="#b9d98d"/></linearGradient><linearGradient id="c" x1="130" x2="382" y1="112" y2="400" gradientUnits="userSpaceOnUse"><stop stop-color="#fafff4"/><stop offset="1" stop-color="#b9d98d"/></linearGradient><linearGradient id="d" x1="168" x2="344" y1="288" y2="368" gradientUnits="userSpaceOnUse"><stop stop-color="#a3e635"/><stop offset="1" stop-color="#4d7c0f"/></linearGradient><filter id="b" width="150%" height="160%" x="-25%" y="-25%"><feDropShadow dx="0" dy="16" flood-color="#19351f" flood-opacity=".25" stdDeviation="14"/></filter></defs><rect width="512" height="512" fill="url(#a)" rx="96"/><g filter="url(#b)"><rect width="288" height="320" x="112" y="96" fill="url(#c)" rx="64"/><rect width="208" height="160" x="152" y="136" fill="#19351f" rx="28"/><g stroke="#fafff4" stroke-linecap="round" stroke-width="10"><path d="M152 189h208m-208 53h208M221 136v160m70-160v160"/></g><path fill="url(#d)" d="M168 342h96a27 27 0 0 0 27-27v-19h-22l35-35 35 35h-22v19a53 53 0 0 1-53 53h-96z"/></g></svg>
